<svg width="96"
    height="96"
    viewBox="0 0 96 96"
    xmlns="http://www.w3.org/2000/svg"
    fill-rule="evenodd"
    clip-rule="evenodd"
    fill="white">
    <path d="M23.076 49.664V49.6849C26.4198 44.6157 28.1064 39.4657 28.1271 33.3724C28.1477 27.2792 26.3196 22.0513 23.076 17H23.0554C20.1245 21.7548 18.261 26.7222 18.084 32.2706C17.889 38.4593 19.6373 44.5507 23.076 49.664ZM23.076 48.4663V48.4484C22.1485 46.6169 21.6624 44.5881 21.6577 42.5287C21.6591 40.4814 22.1456 38.4645 23.076 36.6481V36.6272C24.008 38.4595 24.4942 40.4919 24.4942 42.5542C24.4942 44.6166 24.008 46.6488 23.076 48.4813V48.4663ZM19.3254 32.1149C19.6585 27.6235 20.9972 23.5723 23.0554 19.5121L23.076 19.5301C25.3993 23.665 26.7137 28.3046 26.9093 33.061C27.012 35.2129 26.8296 37.3691 26.3667 39.4716C26.4746 37.3388 26.3371 35.2004 25.9569 33.0999C25.4157 30.2116 24.4443 27.424 23.076 24.8329L23.0554 24.8089C21.8525 27.1617 20.9518 29.6612 20.3751 32.2465C19.9002 34.6287 19.6856 37.0568 19.7352 39.4866C19.3843 37.0224 19.1455 34.612 19.3254 32.1298V32.1149Z"/>
    <path d="M17.9422 55.6793C18.9124 54.7121 19.8264 54.2212 21.2064 54.3589C23.4208 54.5744 24.8361 55.9189 24.9541 58.1465C25.1694 62.4074 19.6112 64.9914 16.1377 64.7937C11.1043 64.5362 7.76351 61.2426 6.96738 56.5506C6.4838 53.6881 7.53058 50.5621 9.51497 48.3824C11.4994 46.2026 14.1355 45.3882 16.8866 45.3462V32.543C7.46571 32.543 0.512811 39.3308 0.0262849 48.619C-0.498574 58.973 6.90251 65.9854 16.344 66.3328C21.3567 66.5274 25.1045 64.6171 28.5426 61.3234V50.2957H17.9275V55.6853L17.9422 55.6793Z"/>
    <path d="M94.0857 49.8966H31V59.9483H94.0857V49.8966Z M34.1484 52.589V57.2073H34.9676V53.0304H34.974L35.8508 57.2073H36.478L37.3548 53.024H37.3612V57.2073H38.1804V52.589H36.7788L36.1644 55.589L35.55 52.589H34.1484ZM40.1949 52.589V57.2073H42.6653V56.5037H41.0717V55.0709H42.5245V54.3673H41.0717V53.2926H42.6653V52.589H40.1949ZM44.3674 52.589L45.5386 54.5911L44.329 57.2073H45.3082L46.0762 55.3651L46.4218 55.8193V57.2073H47.2986V55.8193L47.6442 55.3651L48.4122 57.2073H49.3914L48.1818 54.5911L49.353 52.589H48.361L47.2986 54.5911V52.589H46.4218V54.5911L45.3594 52.589H44.3674ZM52.0583 55.3267H52.8263C53.5751 55.3267 54.0551 54.6999 54.0551 53.9387C54.0551 53.1967 53.5879 52.589 52.8391 52.589H51.1815V57.2073H52.0583V55.3267ZM52.0583 53.2734H52.4999C52.9415 53.2734 53.1591 53.5165 53.1591 53.9515C53.1591 54.3928 52.9415 54.6423 52.4999 54.6423H52.0583V53.2734ZM56.0342 52.589V57.2073H58.5046V56.5037H56.911V55.0709H58.3638V54.3673H56.911V53.2926H58.5046V52.589H56.0342ZM60.4244 52.589V57.2073H61.3012V53.2926H62.85V52.589H60.4244ZM64.677 52.589V57.2073H65.6242L66.9042 53.8555H66.9106C66.821 54.2713 66.8018 54.7574 66.8018 55.4611V57.2073H67.621V52.589H66.6738L65.3938 55.9472H65.3874C65.4706 55.5634 65.4962 54.8662 65.4962 54.3161V52.589H64.677ZM69.5977 54.0858V55.7617C69.5977 56.9259 70.2249 57.3161 71.1017 57.3161C71.9913 57.3161 72.5865 56.9387 72.5865 55.7617V54.0858C72.5865 52.9088 71.9913 52.5059 71.1017 52.5059C70.2249 52.5059 69.5977 52.9216 69.5977 54.0858ZM71.1017 53.2095C71.4793 53.2095 71.6905 53.5037 71.6905 53.9963V55.8704C71.6905 56.3566 71.4793 56.6124 71.1017 56.6124C70.6857 56.6124 70.4937 56.3502 70.4937 55.8704V53.9835C70.4937 53.4909 70.6857 53.2095 71.1017 53.2095ZM75.4404 52.589H74.5636V57.2073H75.4404V55.0709H76.5988V57.2073H77.4756V52.589H76.5988V54.3673H75.4404V52.589ZM79.485 52.589V57.2073H80.3618V53.2926H81.9106V52.589H79.485ZM83.1185 57.2073H84.0593L84.3345 56.0048H85.3265L85.5441 57.2073H86.4913L85.4673 52.589H84.2897L83.1185 57.2073ZM84.4433 55.3203L84.8657 53.1711L85.2177 55.3203H84.4433ZM89.0151 53.9195C89.0151 53.5037 89.1943 53.2095 89.5399 53.2095C89.9111 53.2095 90.0263 53.5485 90.0263 53.8555C90.0263 54.2649 89.7767 54.444 89.4503 54.444H89.2647V55.1029H89.4503C89.8151 55.1029 90.0903 55.3012 90.0903 55.8449C90.0903 56.3246 89.9367 56.6124 89.5143 56.6124C89.0727 56.6124 88.9447 56.299 88.9447 55.9792H88.0935C88.0935 56.9707 88.8103 57.3161 89.5655 57.3161C90.4807 57.3161 90.9863 56.8555 90.9863 55.928C90.9863 55.2308 90.6727 54.8534 90.2119 54.7383C90.6343 54.6295 90.9223 54.2137 90.9223 53.734C90.9223 52.8001 90.1607 52.5059 89.5399 52.5059C88.6695 52.5059 88.1639 53.1135 88.1639 53.9195H89.0151Z"/>
    <path d="M31.9082 36.2593V48.0691H34.7553V38.4962H38.524V36.2593H31.9082ZM40.726 36.2593L38.1587 48.0691H40.9893L41.3514 45.7006H43.5237L43.9516 48.0691H46.7493L44.1327 36.2593H40.726ZM41.6312 43.5787L42.3717 38.3811H42.3882L43.1452 43.5787H41.6312ZM49.9458 39.8614C49.9458 38.6443 50.1762 38.1179 50.9003 38.1179C51.575 38.1179 51.8548 38.6772 51.8548 39.5654C51.8548 40.4042 51.4105 40.8648 50.999 40.8648H50.3243V42.9866H50.7357C51.6409 42.9866 51.9865 43.4307 51.9865 44.5327C51.9865 45.8486 51.6902 46.2269 50.9497 46.2269C50.3243 46.2269 49.9458 45.8486 49.9458 44.5327H47.3291C47.3291 47.5757 49.304 48.3487 51.0649 48.3487C53.3195 48.3487 54.8336 47.2467 54.8336 44.9111C54.8336 42.7892 53.9778 42.2958 52.7764 41.8517H52.7435C53.9449 41.3253 54.4221 40.5852 54.4221 39.1213C54.4221 37.46 53.1549 35.9961 50.9003 35.9961C48.8596 35.9961 47.3291 37.4106 47.3291 39.8614H49.9458ZM56.3528 36.2593V48.0691H59.1999V38.4962H61.0596V48.0691H63.9066V36.2593H56.3528ZM68.3928 43.4636H69.6764C71.3551 43.4636 73.1324 42.7728 73.1324 39.8614C73.1324 36.8514 71.3221 36.2593 69.6764 36.2593H65.5457V48.0691H68.3928V43.4636ZM68.3928 38.3811H68.8536C69.6764 38.3811 70.2853 38.6607 70.2853 39.8285C70.2853 40.9964 69.6106 41.3418 68.9029 41.3418H68.3928V38.3811ZM78.3614 35.9961C75.6789 35.9961 74.5104 37.46 74.5104 39.3186V44.6314C74.5104 46.9835 75.7118 48.3487 78.345 48.3487C81.011 48.3487 82.1795 46.9835 82.1795 44.6314V39.3351C82.1795 37.4929 81.0439 35.9961 78.3614 35.9961ZM78.345 38.1673C78.8222 38.1673 79.3324 38.4633 79.3324 39.1377V45.1249C79.3324 45.8322 78.8222 46.1776 78.345 46.1776C77.8512 46.1776 77.3575 45.8322 77.3575 45.1249V39.1377C77.3575 38.4633 77.8512 38.1673 78.345 38.1673ZM83.7064 36.2593V48.0691H86.4218V43.9077C86.4218 42.3122 86.3231 39.5983 86.2737 38.7759H86.2902L88.0511 48.0691H90.026L91.7866 38.7759H91.8031C91.7372 39.7627 91.6549 42.7892 91.6549 43.9242V48.0691H94.3704V36.2593H90.4045L89.4829 41.0457C89.3183 41.8846 89.1866 43.7103 89.055 44.7795H89.0221C88.8904 43.661 88.7917 42.0162 88.5942 41.0457L87.6726 36.2593H83.7064Z"/>
    <path d="M31.5344 62.224H35.1744V68H34.0784V63.104H32.6304V68H31.5344V62.224ZM49.7599 64.104H48.6639V63.976C48.6639 63.248 48.4799 63 48.0159 63C47.5519 63 47.3519 63.248 47.3519 63.976V66.256C47.3519 67.008 47.5439 67.256 48.0079 67.256C48.4479 67.256 48.6639 67 48.6639 66.256V65.944H49.7599V66.192C49.7599 67.24 49.3839 68.136 48.0159 68.136C46.5759 68.136 46.2319 67.232 46.2319 66.208V64.104C46.2319 62.752 46.8399 62.12 48.0319 62.12C49.1519 62.12 49.7599 62.752 49.7599 63.816V64.104ZM61.9179 62.224V64.728L63.2459 62.224H64.4859L63.0219 64.728L64.5339 68H63.3099L62.3499 65.696L61.9179 66.264V68H60.8219V62.224H61.9179ZM75.2538 64.096C75.2538 62.64 76.0378 62.12 77.1338 62.12C78.2458 62.12 78.9898 62.624 78.9898 64.096V66.192C78.9898 67.664 78.2458 68.136 77.1338 68.136C76.0378 68.136 75.2538 67.648 75.2538 66.192V64.096ZM77.1338 63C76.6138 63 76.3738 63.352 76.3738 63.968V66.328C76.3738 66.928 76.6138 67.256 77.1338 67.256C77.6058 67.256 77.8698 66.936 77.8698 66.328V63.984C77.8698 63.368 77.6058 63 77.1338 63ZM91.1429 63.048V64.568H91.7189C92.1989 64.568 92.3989 64.28 92.3989 63.784C92.3989 63.296 92.2309 63.048 91.7349 63.048H91.1429ZM91.1429 65.392V67.176H91.8469C92.2549 67.176 92.4549 66.928 92.4549 66.28C92.4549 65.712 92.2549 65.392 91.8469 65.392H91.1429ZM90.0469 68V62.224H92.0709C93.0869 62.224 93.4949 62.896 93.4949 63.632C93.4949 64.184 93.1989 64.8 92.7189 64.896C93.2869 65.128 93.5749 65.536 93.5749 66.288C93.5749 67.288 93.1429 68 92.2549 68H90.0469Z"/>
</svg>
